HIERARCHY
ROOT Hips
{
  OFFSET -134.013 77.6921 293.269
  CHANNELS 6 Xposition Yposition Zposition Zrotation Xrotation Yrotation
  JOINT RightUpLeg
  {
    OFFSET -8.9458 -8.66707 0.101652
    CHANNELS 3 Zrotation Xrotation Yrotation
    JOINT RightLeg
    {
      OFFSET 0 -44.4227 1.3727
      CHANNELS 3 Zrotation Xrotation Yrotation
      JOINT RightFoot
      {
        OFFSET 0.253549 -42.0924 -1.46059
        CHANNELS 3 Zrotation Xrotation Yrotation
        JOINT RightToes
        {
          OFFSET 0.04 -4.41509 8.4991
          CHANNELS 3 Zrotation Xrotation Yrotation
          End Site
          {
            OFFSET -0.08 -0.137448 9.77979
          }
        }
      }
    }
  }
  JOINT Spine
  {
    OFFSET 0 11.8905 0
    CHANNELS 3 Zrotation Xrotation Yrotation
    JOINT Spine1
    {
      OFFSET 0 25.6574 0.127663
      CHANNELS 3 Zrotation Xrotation Yrotation
      JOINT HEad
      {
        OFFSET 0 8.73416 0.011341
        CHANNELS 3 Zrotation Xrotation Yrotation
        End Site
        {
          OFFSET -0.29 12.7742 2.51395
        }
      }
      JOINT LeftShoulder1
      {
        OFFSET 8.99 -0.362252 -0.22
        CHANNELS 3 Zrotation Xrotation Yrotation
        JOINT LeftArm
        {
          OFFSET 10.2827 -0.00338 0.322123
          CHANNELS 3 Zrotation Xrotation Yrotation
          JOINT LeftForeArm
          {
            OFFSET 32.7669 0.099144 -1.42434
            CHANNELS 3 Zrotation Xrotation Yrotation
            JOINT LeftHand
            {
              OFFSET 27.5643 0.085362 1.02216
              CHANNELS 3 Zrotation Xrotation Yrotation
              End Site
              {
                OFFSET 16.7443 -0.6 1.50291
              }
            }
          }
        }
      }
      JOINT RightShoulder
      {
        OFFSET -8.99 -0.362252 -0.22
        CHANNELS 3 Zrotation Xrotation Yrotation
        JOINT RightArm
        {
          OFFSET -10.2827 -0.00338 0.322123
          CHANNELS 3 Zrotation Xrotation Yrotation
          JOINT RightForeArm
          {
            OFFSET -32.8971 0.099144 -1.42434
            CHANNELS 3 Zrotation Xrotation Yrotation
            JOINT RightHand
            {
              OFFSET -27.4921 0.085362 1.02216
              CHANNELS 3 Zrotation Xrotation Yrotation
              End Site
              {
                OFFSET -16.6312 -0.6 1.50291
              }
            }
          }
        }
      }
    }
  }
  JOINT LeftUpLeg
  {
    OFFSET 8.9458 -8.66707 0.101652
    CHANNELS 3 Zrotation Xrotation Yrotation
    JOINT LeftLeg
    {
      OFFSET 0 -44.4227 1.3727
      CHANNELS 3 Zrotation Xrotation Yrotation
      JOINT LeftFoot
      {
        OFFSET -0.253549 -42.0924 -1.46059
        CHANNELS 3 Zrotation Xrotation Yrotation
        JOINT LeftToes
        {
          OFFSET -0.04 -4.41509 8.4991
          CHANNELS 3 Zrotation Xrotation Yrotation
          End Site
          {
            OFFSET 0.08 -0.047448 9.77979
          }
        }
      }
    }
  }
}
MOTION
Frames:	6
Frame Time:	0.0166667
-130.237 52.6398 298.19 -4.91308 -22.6461 -47.8052 -33.519 -25.0901 -20.3288 -140.069 57.4659 127.118 85.1263 6.04822 -2.47494 0.0462048 0.000533403 0.662642 -7.36133 26.052 1.63241 5.60917e-006 0.0299698 -0.0160304 -24.5338 -3.71255 43.6973 -3.47873e-016 1.19271e-015 3.18055e-015 -120.589 -43.9922 -76.1165 -30.2329 67.6841 -88.6756 41.1794 8.99952 -26.9239 24.9588 20.1832 -2.19649 49.9631 -7.29241 69.3195 7.66833 54.5089 105.327 -38.7932 20.4301 -7.97134 47.6227 -47.0142 47.2459 -5.37854 71.0508 9.14775 -9.9281 0.702311 -0.298507 -1.18446e-009 1.5602e-007 -4.87132e-009 
-130.817 54.4236 297.825 -3.63487 -22.7516 -44.697 -34.0109 -22.5106 -22.0516 -138.066 59.3298 124.302 85.354 5.92588 -2.20864 0.0462048 0.000533403 0.662642 -7.12017 24.565 0.850367 4.49129e-006 0.0268798 -0.0154903 -24.2725 -2.38377 43.6482 -1.83876e-015 -4.96962e-016 -6.36111e-015 -119.594 -42.102 -74.7026 -29.4086 67.4842 -88.6282 40.7524 9.01455 -26.5244 26.1071 19.9855 -3.54282 50.1662 -7.27267 69.1161 7.77806 54.5738 105.102 -38.9392 20.4655 -7.94792 47.3057 -46.557 51.2676 -11.0509 73.0834 10.0661 -6.61119 0.833489 -0.133686 -1.18447e-009 1.5602e-007 -4.87132e-009 
-131.377 56.1889 297.625 -2.62554 -22.7548 -42.0767 -34.0438 -19.7469 -22.2675 -136.838 62.8792 122.466 84.8487 5.71822 -1.83126 0.0462048 0.000533403 0.662642 -6.93817 23.4268 0.322244 3.67845e-006 0.0238698 -0.0154926 -23.9167 -1.30252 43.2713 1.98785e-016 -1.19271e-015 -6.36111e-015 -118.894 -40.1663 -73.7217 -28.5659 67.2542 -88.587 40.2915 9.11304 -26.1352 27.0846 19.6079 -4.57428 50.4613 -7.33808 68.9125 7.99577 54.6319 104.913 -39.1361 20.4829 -7.81122 44.8463 -46.3898 53.475 -15.0334 75.8772 10.1929 -0.80983 0.873149 0.186645 -1.18446e-009 1.5602e-007 -4.87132e-009 
-131.895 58.0395 297.267 -1.85658 -22.6832 -39.8858 -34.2494 -17.581 -22.5411 -135.58 66.5803 120.863 83.647 5.53824 -1.61957 0.0462048 0.000533403 0.662642 -6.77456 22.578 -0.0129729 3.03282e-006 0.0210798 -0.0157882 -23.4827 -0.427771 42.6041 8.82781e-032 1.59028e-015 -3.18055e-015 -118.4 -38.2449 -73.0483 -27.7156 67.0089 -88.5789 39.8913 9.20818 -25.7233 27.904 19.0991 -5.32905 50.8259 -7.45609 68.712 8.26862 54.67 104.795 -39.2121 20.5693 -7.74573 41.0494 -46.046 53.7292 -10.3729 75.122 3.23017 0.703881 0.452754 0.0875731 -1.18447e-009 1.5602e-007 -4.87131e-009 
-132.357 59.9621 296.833 -1.29386 -22.5551 -38.0757 -34.6634 -15.8548 -22.7588 -134.635 70.4622 119.949 81.8364 5.36298 -1.47862 0.0462048 0.000533403 0.662642 -6.61528 21.9653 -0.194661 2.50225e-006 0.0185617 -0.0162924 -22.5551 0.538179 40.2927 -8.94531e-016 0 -6.36111e-015 -118.045 -36.3809 -72.5951 -26.8704 66.7588 -88.6104 39.488 9.35109 -25.3453 28.6041 18.4917 -5.84144 51.2275 -7.59875 68.522 8.56019 54.6726 104.751 -39.3217 20.6514 -7.61183 36.375 -45.8145 52.3884 -3.59626 72.5623 -4.73284 2.23199 0.0215874 0.126392 -1.18446e-009 1.5602e-007 -4.87132e-009 
-132.766 62.1224 296.346 -0.912134 -22.3646 -36.6129 -35.2154 -14.3921 -22.8533 -133.999 74.7348 119.826 79.4338 5.177 -1.36995 0.0462048 0.000533403 0.662642 -6.44813 21.5256 -0.241251 2.00753e-006 0.016198 -0.0169199 -21.1666 1.56243 36.5447 -3.97569e-016 -9.93923e-016 6.36111e-015 -117.774 -34.5766 -72.2962 -26.0209 66.4739 -88.6873 39.1112 9.50506 -24.9306 29.2789 17.7604 -6.09621 51.6133 -7.74329 68.3292 8.91269 54.58 104.73 -39.5244 20.6882 -7.25213 31.2117 -45.493 49.6236 2.08048 68.9446 -10.7741 2.93407 -0.491754 0.161269 -1.18447e-009 1.5602e-007 -4.87132e-009 
